<?xml version="1.0" encoding="utf-8"?>
<!-- Generator: Adobe Illustrator 25.0.0, SVG Export Plug-In . SVG Version: 6.00 Build 0)  -->
<svg version="1.1" id="Layer_1" xmlns="http://www.w3.org/2000/svg" xmlns:xlink="http://www.w3.org/1999/xlink" x="0px" y="0px"
	 viewBox="0 0 131.6 125" style="enable-background:new 0 0 131.6 125;" xml:space="preserve">
<style type="text/css">
	.st0{fill-rule:evenodd;clip-rule:evenodd;fill:#5CDB95;}
	.st1{fill:#5CDB95;}
</style>
<path class="st0" d="M24.7,49.2c9,0.7,11.8,15.5,14.7,21.6C33.5,67.3,30.7,51.4,24.7,49.2z M41.2,64.1c-1.5,4.5,0.3,9,2.3,12.8
	c2.6,5,3.7,6.4,0.2,7.6c12,3.4,1.7-8.7,0.2-13.1c2.7,3.7,6.7,6.8,9.7,10.5c4,5.1,5.5,9.7,6.5,20c-6.2-9.2-20.7-14.9-27.5-23.3
	c-6.1-7.5-10-27.4-17.4-29c6.4,8.6,7.4,23.1,15.1,32.2c10.4,12.2,27,17.6,34.9,33.9c-0.6-12.1-0.1-25.8-9-36.5
	C52.5,74.9,42.9,68.2,41.2,64.1z M41.3,80.2c-6.6-2.1-11.1-31.9-23.6-32C27.5,52.4,30.8,81.1,41.3,80.2z"/>
<path class="st0" d="M92.3,70.8c2.9-6.1,5.7-20.9,14.7-21.6C100.9,51.4,98.1,67.3,92.3,70.8z M99.1,78.8
	c-6.8,8.4-21.3,14.1-27.5,23.3c1-10.3,2.4-15,6.5-20c3-3.8,7-6.8,9.7-10.5c-1.5,4.3-11.7,16.5,0.2,13.1c-3.5-1.2-2.4-2.6,0.2-7.6
	c2-3.8,3.8-8.3,2.3-12.8c-1.7,4.1-11.3,10.8-15,15.3c-8.8,10.7-8.3,24.4-9,36.5c8-16.3,24.6-21.7,34.9-33.9
	c7.7-9.1,8.7-23.6,15.1-32.2C109.1,51.4,105.1,71.3,99.1,78.8z M113.9,48.2c-12.5,0.1-17,29.9-23.6,32
	C100.8,81.1,104.1,52.4,113.9,48.2z"/>
<path class="st0" d="M65.8,39.3c9.7,10.7,11.7,33.8,0,33.8c-9.2,0-10-14.3-5.1-25.6c1.2,1.6,2.2,3.3,3.1,5.1
	c-2.7,7.6-2.3,15.5,2,15.5c5.1,0,4.6-11.4,0-20c-7.7-14.2-28.3-16-34.5-0.5c-1.6-1.2-3.4-1.9-5.3-2.3C33.8,26.3,55.6,28.1,65.8,39.3
	z M68.7,36.6c1.2,1.3,2.3,2.8,3.3,4.4c9.4-7.1,23.4-5.7,28.3,6.7c1.6-1.2,3.4-2,5.3-2.3C98.5,27.9,79.6,28,68.7,36.6z"/>
<path class="st1" d="M56.9,17.2c0-0.4,0.1-0.7,0.1-1.1c0.3-1.6,1-3.1,2-4.3c1-1.2,2.4-2.2,3.9-2.7c0,0,0.1,0,0.1,0c0,0,0,0,0,0
	c-1,0.8-1.8,1.8-2.3,2.9c-0.5,1.1-0.8,2.3-0.8,3.6c0,2.2,0.8,4.3,2.3,5.9c1.5,1.6,3.6,2.5,5.8,2.6c1.1,0,2.3-0.2,3.3-0.6
	c1.1-0.4,2-1,2.8-1.8l0,0c-0.3,0.4-0.5,0.9-0.8,1.3c-1,1.5-2.4,2.6-4.1,3.3c-1.7,0.7-3.5,0.8-5.2,0.5c-1.7-0.4-3.4-1.2-4.6-2.5
	c-1.3-1.3-2.1-2.9-2.5-4.6c-0.1-0.4-0.1-0.8-0.2-1.2c0-0.1,0-0.1,0-0.2V17.2z"/>
<path class="st1" d="M67.6,14c0.5-0.2,1-0.5,1.5-0.7c0.5-0.2,0.5-0.2,0.4-0.7c-0.1-0.5-0.1-1.1-0.2-1.6l0,0c0,0.1,0.1,0.1,0.1,0.1
	c0.4,0.4,0.8,0.9,1.2,1.3c0,0,0,0,0.1,0.1c0,0,0,0,0.1,0c0,0,0.1,0,0.1,0s0.1,0,0.1,0c0.6-0.3,1.2-0.5,1.8-0.8l-1.1,1.8l1.5,1.6
	c-0.4-0.1-0.7-0.2-1.1-0.2c-0.3-0.1-0.6-0.1-0.9-0.2c0,0,0,0-0.1,0c0,0,0,0-0.1,0c0,0,0,0-0.1,0c0,0,0,0,0,0.1
	c-0.3,0.5-0.6,1-0.9,1.5c0,0.1-0.1,0.1-0.1,0.2c0-0.4-0.1-0.7-0.1-1c0-0.4-0.1-0.7-0.1-1.1c0,0,0-0.1-0.1-0.1c0,0-0.1,0-0.1,0
	C68.9,14.3,68.3,14.1,67.6,14z"/>
</svg>
