<svg width="372" height="210" viewBox="0 0 372 210" fill="none" xmlns="http://www.w3.org/2000/svg">
<path fill-rule="evenodd" clip-rule="evenodd" d="M95.6139 40.0821C104.591 40.7675 107.41 55.6188 110.273 61.7077C104.472 58.244 101.635 42.3001 95.6139 40.0821ZM112.182 55.0263C110.664 59.539 112.454 64.0444 114.447 67.8626C117.032 72.813 118.112 74.2686 114.624 75.4355C126.583 78.8353 116.336 66.727 114.853 62.3807C117.525 66.1218 121.529 69.1621 124.522 72.9149C128.564 77.9831 130.026 82.637 130.982 92.9414C124.747 83.7721 110.276 78.0332 103.47 69.6548C97.3972 62.1797 93.4855 42.2688 86.0857 40.6974C92.5066 49.2737 93.5162 63.8175 101.183 72.8678C111.545 85.0981 128.148 90.514 136.126 106.817C135.495 94.7259 136.013 80.9751 127.172 70.28C123.46 65.7894 113.842 59.0916 112.182 55.0263ZM112.253 71.0692C105.65 68.9328 101.169 39.1593 88.6828 39.0643C98.4233 43.3057 101.723 72.0451 112.253 71.0692Z" fill="#5CDB95"/>
<path fill-rule="evenodd" clip-rule="evenodd" d="M163.2 61.7077C166.062 55.6188 168.882 40.7675 177.858 40.0821C171.838 42.3 169.001 58.2439 163.2 61.7077ZM170.002 69.6548C163.196 78.0332 148.726 83.7721 142.49 92.9414C143.446 82.637 144.907 77.9831 148.951 72.9149C151.943 69.1621 155.947 66.1218 158.62 62.3807C157.137 66.727 146.889 78.8353 158.847 75.4355C155.361 74.2692 156.44 72.813 159.025 67.8626C161.019 64.0444 162.809 59.539 161.29 55.0263C159.63 59.0917 150.013 65.7894 146.3 70.28C137.46 80.9751 137.977 94.7259 137.346 106.817C145.324 90.514 161.929 85.0981 172.289 72.8678C179.956 63.8175 180.966 49.2737 187.387 40.6974C179.987 42.2688 176.076 62.1797 170.002 69.6548ZM184.789 39.0643C172.303 39.1593 167.822 68.9328 161.219 71.0692C171.749 72.0457 175.049 43.3055 184.789 39.0643Z" fill="#5CDB95"/>
<path fill-rule="evenodd" clip-rule="evenodd" d="M136.736 30.2231C146.468 40.9299 148.463 64.0031 136.736 64.0031C127.505 64.0031 126.777 49.7043 131.633 38.3955C132.809 40.0096 133.855 41.7141 134.762 43.4931C132.1 51.0725 132.51 59.0015 136.736 59.0015C141.813 59.0015 141.382 47.5613 136.736 39.0291C129.004 24.8313 108.435 23.0338 102.26 38.5593C100.686 37.3886 98.8544 36.6103 96.9189 36.2894C104.69 17.1598 126.568 19.0364 136.736 30.2231ZM139.608 27.5476C140.828 28.8965 141.923 30.3533 142.879 31.9003C152.3 24.8233 166.301 26.2183 171.212 38.5561C172.781 37.3779 174.615 36.5995 176.553 36.2883C169.451 18.8081 150.569 18.8694 139.608 27.5476Z" fill="#5CDB95"/>
<path d="M74.1867 46.1726C66.6382 39.5721 52.3668 35.4468 41.2803 35.4468C32.5528 35.4468 25.9474 37.922 25.9474 43.5795C25.9474 57.9588 84.0936 47.1154 84.0936 79.9992C84.0936 98.1505 65.2223 105.458 44.7006 105.458C27.9524 105.458 10.0251 100.626 0 92.8465L9.78946 76.3454C17.5739 83.5352 34.2038 88.0141 46.7058 88.0141C55.4338 88.0141 62.2743 85.6568 62.2743 80.4707C62.2743 65.5018 4.3641 75.8739 4.3641 43.2257C4.3641 25.0748 21.3479 18.003 40.4547 18.003C56.2593 18.003 73.4797 22.7176 83.8583 30.1431L74.1867 46.1726Z" fill="white"/>
<path d="M224.569 103.926L184.586 20.2424H205.698L234.594 80.3528L263.49 20.2424H284.602L244.737 103.926H224.569Z" fill="white"/>
<path d="M372 86.1282V102.747H297.578V20.2424H371.174V36.8614H317.509V53.2447H363.272V69.7461H317.509V86.1288L372 86.1282Z" fill="white"/>
<path d="M5.05191 122.732H24.8018C32.7749 122.732 36.7873 129.505 36.7873 136.279C36.7873 143.052 32.7747 149.825 24.8018 149.825H13.8583V164.322H5.05191V122.732ZM13.8583 141.448H23.8636C26.782 141.448 28.2409 138.893 28.2409 136.279C28.2409 133.724 26.782 131.11 23.8636 131.11H13.8583V141.448Z" fill="white"/>
<path d="M61.6957 122.138H70.6065L88.2193 164.322H78.8922L76.3387 158.261H55.9115L53.358 164.322H44.0305L61.6957 122.138ZM59.4548 149.884H72.795L66.1252 134.02L59.4548 149.884Z" fill="white"/>
<path d="M101.769 122.732H110.575V139.903L126.73 122.732H137.881L120.789 141.329L140.227 164.322H128.762L114.953 147.626L110.576 152.439V164.322H101.769V122.732Z" fill="white"/>
<path d="M153.462 122.732H162.268V164.321H153.462V122.732Z" fill="white"/>
<path d="M209.636 135.804C206.301 132.476 199.996 130.397 195.097 130.397C191.241 130.397 188.323 131.644 188.323 134.496C188.323 141.745 214.013 136.279 214.013 152.855C214.013 162.005 205.676 165.688 196.609 165.688C189.209 165.688 181.288 163.252 176.859 159.331L181.184 151.014C184.623 154.637 191.971 156.895 197.494 156.895C201.35 156.895 204.372 155.707 204.372 153.093C204.372 145.547 178.787 150.776 178.787 134.318C178.787 125.168 186.29 121.603 194.733 121.603C201.716 121.603 209.323 123.98 213.91 127.724L209.636 135.804Z" fill="white"/>
<path d="M265.758 122.732V131.05H249.813V164.321H241.006V130.991H225.061V122.732H265.758Z" fill="white"/>
<path d="M289.053 122.138H297.963L315.577 164.322H306.249L303.695 158.261H283.268L280.715 164.322H271.387L289.053 122.138ZM286.812 149.884H300.152L293.482 134.021L286.812 149.884Z" fill="white"/>
<path d="M329.125 122.732H337.931L360.339 151.726V122.732H369.094V164.321H360.339L337.931 135.328V164.321H329.125V122.732Z" fill="white"/>
<path d="M127.825 8.14932C127.872 7.78517 127.904 7.41855 127.969 7.05724C128.251 5.4699 128.947 3.98522 129.988 2.75379C131.029 1.52237 132.378 0.588033 133.897 0.0455862C133.941 0.0299101 133.985 0.0138928 134.029 0.000102552C134.042 -0.000468048 134.056 0.00134574 134.068 0.00546206C133.092 0.777086 132.302 1.75843 131.757 2.87672C131.213 3.99501 130.927 5.22154 130.921 6.46532C130.893 8.6625 131.733 10.782 133.26 12.364C134.786 13.946 136.875 14.8628 139.073 14.9155C140.201 14.9526 141.324 14.7579 142.374 14.3435C143.424 13.9291 144.377 13.3039 145.176 12.5064L145.218 12.5372C144.963 12.96 144.732 13.4 144.449 13.8027C143.436 15.2689 142.015 16.4063 140.362 17.0739C138.71 17.7416 136.897 17.9103 135.15 17.5591C133.402 17.208 131.796 16.3524 130.53 15.0983C129.264 13.8442 128.393 12.2466 128.026 10.5033C127.945 10.1211 127.914 9.72818 127.858 9.34035C127.848 9.27134 127.836 9.2028 127.825 9.13408V8.14932Z" fill="#5CDB95"/>
<path d="M138.489 4.89269C139.031 4.65483 139.527 4.43619 140.024 4.21867C140.512 4.00545 140.505 4.0065 140.445 3.47953C140.384 2.95072 140.338 2.42021 140.286 1.8904L140.333 1.84539C140.362 1.89745 140.395 1.94729 140.431 1.99454C140.826 2.44242 141.23 2.88359 141.618 3.3382C141.633 3.36202 141.652 3.38255 141.676 3.39856C141.699 3.41457 141.725 3.42573 141.752 3.43136C141.78 3.43699 141.808 3.43697 141.836 3.43131C141.864 3.42565 141.89 3.41447 141.913 3.39843C142.505 3.13323 143.1 2.87541 143.721 2.63821L142.643 4.48279L144.096 6.12068C143.697 6.03422 143.348 5.95873 142.997 5.88234C142.7 5.81751 142.402 5.75669 142.107 5.68373C142.084 5.67502 142.061 5.67084 142.037 5.67144C142.012 5.67205 141.989 5.67741 141.967 5.68723C141.945 5.69706 141.925 5.71114 141.909 5.72865C141.893 5.74617 141.88 5.76679 141.871 5.78928C141.575 6.30726 141.271 6.82092 140.969 7.33569C140.938 7.38914 140.902 7.44018 140.844 7.53017C140.807 7.16779 140.775 6.84938 140.743 6.53091C140.707 6.1756 140.677 5.81957 140.631 5.46568C140.619 5.43475 140.599 5.40707 140.575 5.38487C140.55 5.36267 140.52 5.34654 140.489 5.33779C139.839 5.18751 139.188 5.0465 138.489 4.89269Z" fill="#5CDB95"/>
<path d="M10.4788 209.576H6.74382V203.68H10.4788V209.576Z" fill="white"/>
<path d="M58.8399 210C56.067 210 53.6053 209.406 51.4548 208.219C49.3327 207.003 47.6632 205.306 46.4465 203.129C45.2581 200.923 44.6639 198.336 44.6639 195.367C44.6639 192.398 45.2581 189.825 46.4465 187.648C47.6632 185.442 49.3327 183.746 51.4548 182.558C53.6053 181.342 56.067 180.734 58.8399 180.734C61.3016 180.734 63.5086 181.173 65.461 182.049C67.4134 182.897 68.9413 184.113 70.0448 185.697C71.1766 187.252 71.7425 189.118 71.7425 191.295V191.804H68.4744V191.295C68.4744 188.864 67.6539 186.983 66.0127 185.654C64.3716 184.325 61.9948 183.661 58.8823 183.661C56.5338 183.661 54.5249 184.113 52.8554 185.018C51.2143 185.895 49.9693 187.195 49.1204 188.92C48.2716 190.645 47.8472 192.794 47.8472 195.367C47.8472 197.912 48.2716 200.061 49.1204 201.814C49.9693 203.539 51.2143 204.854 52.8554 205.759C54.5249 206.635 56.5338 207.073 58.8823 207.073C61.9948 207.073 64.3716 206.409 66.0127 205.08C67.6539 203.751 68.4744 201.871 68.4744 199.439V198.93H71.7425V199.439C71.7425 201.588 71.1766 203.454 70.0448 205.038C68.9413 206.621 67.4134 207.851 65.461 208.728C63.5086 209.576 61.3016 210 58.8399 210Z" fill="white"/>
<path d="M110.196 209.576H107.183V181.158H121.104C123.085 181.158 124.825 181.484 126.325 182.134C127.824 182.784 128.984 183.717 129.805 184.933C130.654 186.149 131.078 187.634 131.078 189.387C131.078 190.998 130.71 192.384 129.975 193.543C129.239 194.703 128.22 195.607 126.919 196.258C125.617 196.88 124.075 197.219 122.292 197.276V197.488C123.226 197.742 123.99 198.166 124.584 198.76C125.179 199.354 125.716 200.061 126.197 200.881L131.545 209.576H128.065L123.014 201.348C122.533 200.556 122.009 199.92 121.444 199.439C120.906 198.93 120.227 198.562 119.406 198.336C118.614 198.082 117.581 197.954 116.308 197.954H110.196V209.576ZM110.196 183.915V195.537H121.062C123.297 195.537 124.995 195.084 126.155 194.18C127.343 193.246 127.937 191.762 127.937 189.726C127.937 187.718 127.343 186.248 126.155 185.315C124.995 184.382 123.297 183.915 121.062 183.915H110.196Z" fill="white"/>
<path d="M178.922 199.778H176.29L163.727 181.158H167.42L175.229 192.737L177.564 196.215H177.818L180.11 192.737L187.877 181.158H191.527L178.922 199.778ZM179.134 209.576H176.078V197.53H179.134V209.576Z" fill="white"/>
<path d="M238.446 200.372H226.689V197.615H238.191C240.709 197.615 242.619 197.078 243.921 196.003C245.222 194.929 245.873 193.176 245.873 190.744C245.873 188.369 245.222 186.644 243.921 185.569C242.619 184.467 240.709 183.915 238.191 183.915H226.689V181.158H238.446C240.483 181.158 242.294 181.54 243.878 182.304C245.463 183.039 246.694 184.127 247.571 185.569C248.476 186.983 248.929 188.708 248.929 190.744C248.929 192.78 248.476 194.519 247.571 195.961C246.694 197.375 245.463 198.463 243.878 199.227C242.294 199.99 240.483 200.372 238.446 200.372ZM228.387 209.576H225.373V181.158H228.387V209.576Z" fill="white"/>
<path d="M296.246 209.576H293.232V181.158H296.246V209.576ZM307.918 183.915H281.518V181.158H307.918V183.915Z" fill="white"/>
<path d="M355.605 210C352.803 210 350.313 209.406 348.135 208.219C345.984 207.003 344.301 205.306 343.084 203.129C341.867 200.923 341.259 198.336 341.259 195.367C341.259 192.398 341.867 189.825 343.084 187.648C344.301 185.442 345.984 183.746 348.135 182.558C350.313 181.342 352.803 180.734 355.605 180.734C358.462 180.734 360.967 181.342 363.117 182.558C365.267 183.746 366.951 185.442 368.168 187.648C369.413 189.825 370.035 192.398 370.035 195.367C370.035 198.336 369.413 200.923 368.168 203.129C366.951 205.306 365.267 207.003 363.117 208.219C360.967 209.406 358.462 210 355.605 210ZM355.605 207.073C358.01 207.073 360.047 206.635 361.716 205.759C363.386 204.854 364.659 203.539 365.536 201.814C366.413 200.061 366.852 197.912 366.852 195.367C366.852 192.794 366.413 190.645 365.536 188.92C364.659 187.195 363.386 185.895 361.716 185.018C360.047 184.113 358.01 183.661 355.605 183.661C353.228 183.661 351.205 184.113 349.535 185.018C347.866 185.895 346.593 187.195 345.715 188.92C344.867 190.645 344.442 192.794 344.442 195.367C344.442 197.912 344.867 200.061 345.715 201.814C346.593 203.539 347.866 204.854 349.535 205.759C351.205 206.635 353.228 207.073 355.605 207.073Z" fill="white"/>
</svg>
